<?xml version="1.0" encoding="utf-8"?>
<!-- Generator: Adobe Illustrator 16.0.0, SVG Export Plug-In . SVG Version: 6.00 Build 0)  -->
<!DOCTYPE svg PUBLIC "-//W3C//DTD SVG 1.1//EN" "http://www.w3.org/Graphics/SVG/1.1/DTD/svg11.dtd">
<svg version="1.1" id="Layer_1" xmlns="http://www.w3.org/2000/svg" xmlns:xlink="http://www.w3.org/1999/xlink" x="0px" y="0px"
	 width="319px" height="243px" viewBox="-77 -58.702 319 243" enable-background="new -77 -58.702 319 243" xml:space="preserve">
<g>
	<g>
		<g>
			<path fill="#399E9E" d="M28.164,109.483c-1.902-1.379-4.328-2.07-7.287-2.07c-1.198,0-2.377,0.12-3.538,0.36
				c-1.162,0.239-2.191,0.641-3.09,1.198c-0.901,0.562-1.621,1.31-2.153,2.251c-0.544,0.936-0.813,2.106-0.813,3.507
				c0,1.32,0.387,2.391,1.168,3.209c0.777,0.818,1.818,1.487,3.119,2.008c1.298,0.521,2.766,0.95,4.406,1.287
				c1.638,0.348,3.308,0.712,5.01,1.111c1.698,0.399,3.365,0.873,5.004,1.412c1.64,0.536,3.109,1.266,4.412,2.188
				c1.296,0.919,2.334,2.079,3.115,3.476c0.779,1.4,1.169,3.158,1.169,5.278c0,2.275-0.513,4.229-1.532,5.847
				c-1.018,1.619-2.327,2.937-3.927,3.957c-1.598,1.015-3.389,1.76-5.369,2.215c-1.979,0.464-3.947,0.695-5.905,0.695
				c-2.4,0-4.671-0.303-6.809-0.901c-2.139-0.606-4.022-1.514-5.635-2.729c-1.619-1.221-2.903-2.776-3.838-4.676
				c-0.939-1.898-1.406-4.15-1.406-6.747h5.391c0,1.795,0.358,3.349,1.052,4.645c0.698,1.301,1.624,2.368,2.758,3.206
				c1.135,0.841,2.47,1.462,3.99,1.859c1.518,0.4,3.079,0.601,4.673,0.601c1.277,0,2.569-0.119,3.874-0.361
				c1.294-0.243,2.466-0.646,3.505-1.23c1.038-0.581,1.876-1.367,2.518-2.371c0.641-0.995,0.959-2.276,0.959-3.836
				c0-1.476-0.39-2.673-1.166-3.599c-0.783-0.917-1.824-1.667-3.118-2.247c-1.303-0.576-2.773-1.048-4.41-1.412
				c-1.64-0.355-3.31-0.727-5.01-1.107c-1.698-0.376-3.367-0.816-5.008-1.318c-1.637-0.5-3.109-1.157-4.403-1.978
				c-1.304-0.821-2.345-1.88-3.12-3.181c-0.78-1.297-1.166-2.925-1.166-4.887c0-2.157,0.438-4.025,1.317-5.608
				c0.88-1.579,2.047-2.879,3.505-3.896c1.463-1.018,3.122-1.777,4.983-2.281c1.859-0.496,3.768-0.744,5.725-0.744
				c2.198,0,4.237,0.262,6.113,0.774c1.88,0.521,3.53,1.342,4.951,2.465c1.42,1.113,2.538,2.521,3.357,4.226
				c0.817,1.7,1.273,3.726,1.352,6.081h-5.398C31.17,113.088,30.063,110.858,28.164,109.483z"/>
			<path fill="#399E9E" d="M57.993,115.449v4.499h-6.171v19.248c0,0.601,0.047,1.082,0.146,1.44c0.1,0.362,0.292,0.639,0.569,0.841
				c0.279,0.199,0.668,0.331,1.169,0.395c0.5,0.054,1.149,0.084,1.951,0.084h2.336v4.5h-3.895c-1.317,0-2.448-0.089-3.389-0.271
				c-0.942-0.183-1.7-0.511-2.276-0.99c-0.587-0.479-1.015-1.161-1.288-2.037c-0.279-0.88-0.425-2.036-0.425-3.477v-19.733h-5.277
				v-4.499h5.277v-9.3h5.102v9.3H57.993z"/>
			<path fill="#399E9E" d="M68.249,115.449v6.534h0.117c1.238-2.514,2.762-4.373,4.559-5.576c1.803-1.198,4.078-1.755,6.84-1.68
				v5.395c-2.037,0-3.775,0.282-5.221,0.842c-1.438,0.561-2.596,1.381-3.477,2.462c-0.879,1.077-1.518,2.388-1.916,3.923
				c-0.402,1.544-0.6,3.313-0.6,5.309v13.796h-5.098v-31.004H68.249z"/>
			<path fill="#399E9E" d="M111.07,146.335c-0.883,0.518-2.104,0.775-3.66,0.775c-1.322,0-2.369-0.368-3.152-1.111
				c-0.777-0.739-1.166-1.945-1.166-3.628c-1.398,1.681-3.031,2.889-4.891,3.628c-1.857,0.743-3.869,1.111-6.027,1.111
				c-1.396,0-2.732-0.161-3.986-0.479c-1.26-0.318-2.352-0.818-3.273-1.499c-0.916-0.677-1.645-1.562-2.183-2.667
				c-0.543-1.102-0.814-2.428-0.814-3.988c0-1.759,0.309-3.196,0.9-4.319c0.599-1.117,1.39-2.026,2.369-2.724
				c0.982-0.698,2.1-1.23,3.359-1.591c1.262-0.36,2.549-0.663,3.867-0.901c1.398-0.28,2.732-0.489,3.99-0.633
				c1.26-0.139,2.371-0.336,3.33-0.598c0.955-0.26,1.719-0.642,2.27-1.142c0.572-0.498,0.846-1.23,0.846-2.19
				c0-1.115-0.207-2.02-0.631-2.7c-0.422-0.678-0.961-1.196-1.619-1.559c-0.66-0.357-1.398-0.599-2.217-0.719
				c-0.824-0.116-1.631-0.178-2.434-0.178c-2.16,0-3.951,0.408-5.396,1.23c-1.434,0.819-2.215,2.368-2.338,4.649h-5.098
				c0.08-1.916,0.48-3.539,1.203-4.854c0.715-1.323,1.676-2.391,2.877-3.212c1.197-0.818,2.562-1.407,4.104-1.768
				c1.539-0.36,3.189-0.542,4.949-0.542c1.398,0,2.787,0.103,4.17,0.302c1.377,0.199,2.631,0.607,3.748,1.229
				c1.117,0.617,2.02,1.485,2.693,2.601c0.682,1.115,1.021,2.571,1.021,4.367v15.918c0,1.196,0.072,2.073,0.211,2.631
				c0.135,0.561,0.605,0.839,1.408,0.839c0.438,0,0.959-0.082,1.562-0.242v3.961h0.008V146.335z M102.793,130.445
				c-0.641,0.475-1.479,0.822-2.521,1.038c-1.035,0.22-2.131,0.401-3.271,0.536c-1.131,0.142-2.285,0.299-3.445,0.478
				c-1.16,0.183-2.195,0.468-3.117,0.866c-0.916,0.396-1.668,0.964-2.246,1.698c-0.582,0.744-0.877,1.747-0.877,3.016
				c0,0.839,0.172,1.545,0.512,2.12s0.783,1.045,1.318,1.4c0.545,0.358,1.174,0.619,1.889,0.776c0.725,0.157,1.48,0.24,2.281,0.24
				c1.688,0,3.121-0.232,4.322-0.686c1.199-0.458,2.18-1.032,2.938-1.729c0.758-0.695,1.318-1.452,1.678-2.271
				c0.357-0.815,0.539-1.579,0.539-2.298v-5.188h0.002V130.445z"/>
			<path fill="#399E9E" d="M129.057,115.449v4.499h-6.18v19.248c0,0.601,0.053,1.082,0.154,1.44
				c0.094,0.362,0.281,0.639,0.562,0.841c0.281,0.201,0.674,0.331,1.174,0.395c0.496,0.054,1.148,0.084,1.951,0.084h2.336v4.5h-3.9
				c-1.316,0-2.447-0.089-3.387-0.271c-0.941-0.183-1.695-0.511-2.277-0.99c-0.574-0.479-1.008-1.161-1.289-2.037
				c-0.281-0.88-0.414-2.036-0.414-3.477v-19.733h-5.283v-4.499h5.283v-9.3h5.094v9.3H129.057z"/>
			<path fill="#399E9E" d="M162.16,146.335c-0.879,0.518-2.1,0.775-3.664,0.775c-1.316,0-2.369-0.368-3.137-1.111
				c-0.785-0.739-1.176-1.945-1.176-3.628c-1.398,1.681-3.027,2.889-4.889,3.628c-1.863,0.743-3.873,1.111-6.029,1.111
				c-1.395,0-2.73-0.161-3.984-0.479c-1.26-0.318-2.35-0.818-3.271-1.499c-0.92-0.677-1.645-1.562-2.191-2.667
				c-0.535-1.102-0.801-2.428-0.801-3.988c0-1.759,0.291-3.196,0.896-4.319c0.6-1.117,1.385-2.026,2.363-2.724
				c0.984-0.698,2.102-1.23,3.361-1.591c1.262-0.36,2.553-0.663,3.871-0.901c1.398-0.28,2.727-0.489,3.988-0.633
				c1.26-0.139,2.367-0.336,3.328-0.598c0.955-0.26,1.715-0.642,2.275-1.142c0.557-0.498,0.84-1.23,0.84-2.19
				c0-1.115-0.211-2.02-0.631-2.7c-0.414-0.678-0.957-1.196-1.615-1.559c-0.662-0.357-1.402-0.599-2.225-0.719
				c-0.814-0.116-1.625-0.178-2.426-0.178c-2.154,0-3.961,0.408-5.396,1.23c-1.438,0.819-2.217,2.368-2.336,4.649h-5.098
				c0.082-1.916,0.479-3.539,1.201-4.854c0.719-1.323,1.678-2.391,2.869-3.212c1.207-0.818,2.574-1.407,4.113-1.768
				c1.537-0.36,3.184-0.542,4.949-0.542c1.398,0,2.789,0.103,4.166,0.302c1.383,0.199,2.627,0.607,3.748,1.229
				c1.117,0.617,2.021,1.485,2.699,2.601s1.023,2.571,1.023,4.367v15.918c0,1.196,0.062,2.073,0.209,2.631
				c0.137,0.561,0.607,0.839,1.404,0.839c0.438,0,0.959-0.082,1.562-0.242v3.961l0,0V146.335z M153.885,130.445
				c-0.637,0.475-1.482,0.822-2.518,1.038c-1.043,0.22-2.127,0.401-3.273,0.536c-1.137,0.142-2.283,0.299-3.443,0.478
				c-1.162,0.183-2.199,0.468-3.117,0.866c-0.918,0.396-1.67,0.964-2.252,1.698c-0.58,0.744-0.873,1.747-0.873,3.016
				c0,0.839,0.174,1.545,0.512,2.12c0.34,0.576,0.781,1.045,1.32,1.4c0.541,0.358,1.168,0.619,1.887,0.776
				c0.725,0.157,1.477,0.24,2.285,0.24c1.676,0,3.111-0.232,4.314-0.686c1.197-0.458,2.176-1.032,2.936-1.729
				c0.754-0.695,1.316-1.452,1.676-2.271c0.363-0.815,0.545-1.579,0.545-2.298L153.885,130.445L153.885,130.445z"/>
		</g>
		<g>
			<path opacity="0.8" fill="#399E9E" enable-background="new    " d="M147.658-20.871c13.746,32.313-35.117,121.45-70.232,121.652
				C42.301,100.985-10.375,9.544,7.186-20.871C24.744-51.289,133.906-53.184,147.658-20.871z"/>
			<path opacity="0.8" fill="#399E9E" enable-background="new    " d="M161.615,43.556c-13.129,32.57-110.708,61.042-135.683,36.351
				C0.957,55.221,28.364-46.689,62.287-55.775C96.207-64.865,174.742,10.981,161.615,43.556z"/>
			<g>
				<path fill="#FFFFFF" d="M55.98,6.223c3.401,0,5.979,0.876,7.729,2.626c1.749,1.748,2.622,4.196,2.622,7.346
					c0,3.153-0.873,5.607-2.622,7.374c-1.751,1.761-4.328,2.631-7.729,2.602H45.675V39.97h-4.492V6.223H55.98z M54.468,22.382
					c2.551,0.04,4.421-0.483,5.602-1.554c1.184-1.071,1.771-2.616,1.771-4.634c0-2.017-0.588-3.553-1.771-4.608
					c-1.181-1.054-3.051-1.584-5.602-1.584h-8.793v12.38H54.468z"/>
				<path fill="#FFFFFF" d="M70.584,22.74c0.504-1.557,1.262-2.912,2.27-4.065c1.008-1.148,2.254-2.055,3.73-2.714
					c1.486-0.664,3.186-0.993,5.109-0.993c1.955,0,3.666,0.33,5.125,0.993c1.467,0.659,2.707,1.565,3.713,2.714
					c1.006,1.153,1.764,2.509,2.271,4.065c0.508,1.561,0.756,3.24,0.756,5.036c0,1.795-0.252,3.466-0.756,5.008
					c-0.508,1.546-1.264,2.893-2.271,4.041c-1.004,1.156-2.246,2.048-3.713,2.695c-1.461,0.645-3.17,0.97-5.125,0.97
					c-1.924,0-3.623-0.323-5.109-0.97c-1.479-0.647-2.723-1.54-3.73-2.695c-1.006-1.148-1.764-2.495-2.27-4.041
					c-0.504-1.543-0.758-3.214-0.758-5.008C69.829,25.985,70.083,24.301,70.584,22.74z M74.676,31.721
					c0.391,1.153,0.934,2.113,1.633,2.884c0.688,0.773,1.498,1.363,2.432,1.773c0.928,0.409,1.914,0.614,2.955,0.614
					c1.043,0,2.021-0.203,2.957-0.614c0.924-0.41,1.736-1,2.432-1.773c0.689-0.771,1.236-1.731,1.629-2.884
					c0.396-1.15,0.594-2.464,0.594-3.945c0-1.478-0.197-2.797-0.594-3.947c-0.393-1.148-0.938-2.118-1.629-2.909
					c-0.691-0.787-1.504-1.387-2.432-1.796c-0.936-0.404-1.914-0.612-2.957-0.612c-1.041,0-2.025,0.204-2.955,0.612
					c-0.932,0.411-1.742,1.009-2.432,1.796c-0.695,0.791-1.24,1.76-1.633,2.909c-0.396,1.147-0.598,2.467-0.598,3.947
					C74.079,29.261,74.28,30.571,74.676,31.721z"/>
				<path fill="#FFFFFF" d="M101.355,34.51c0.377,0.612,0.873,1.104,1.484,1.463c0.621,0.363,1.312,0.622,2.08,0.781
					c0.771,0.159,1.568,0.238,2.387,0.238c0.639,0,1.297-0.047,1.99-0.141c0.688-0.097,1.33-0.269,1.912-0.523
					c0.584-0.248,1.064-0.62,1.439-1.109c0.379-0.487,0.566-1.107,0.566-1.864c0-1.042-0.396-1.83-1.176-2.366
					c-0.793-0.537-1.777-0.965-2.955-1.299c-1.188-0.329-2.471-0.632-3.857-0.899c-1.385-0.27-2.672-0.645-3.852-1.133
					c-1.18-0.489-2.162-1.176-2.953-2.055c-0.785-0.881-1.182-2.109-1.182-3.688c0-1.231,0.275-2.285,0.828-3.165
					c0.553-0.883,1.26-1.6,2.127-2.151c0.865-0.55,1.844-0.961,2.936-1.231c1.084-0.268,2.16-0.399,3.234-0.399
					c1.387,0,2.66,0.116,3.826,0.354c1.168,0.238,2.199,0.645,3.096,1.226c0.898,0.587,1.615,1.375,2.152,2.369
					c0.531,0.991,0.846,2.228,0.945,3.708h-4.02c-0.064-0.786-0.27-1.438-0.609-1.961c-0.35-0.52-0.789-0.936-1.324-1.254
					c-0.539-0.314-1.129-0.542-1.773-0.685c-0.646-0.138-1.297-0.211-1.957-0.211c-0.602,0-1.209,0.05-1.822,0.138
					c-0.617,0.098-1.172,0.264-1.68,0.5c-0.502,0.238-0.914,0.554-1.23,0.945c-0.311,0.396-0.469,0.906-0.469,1.537
					c0,0.694,0.242,1.268,0.73,1.725c0.486,0.457,1.111,0.835,1.871,1.132c0.754,0.302,1.605,0.553,2.549,0.758
					c0.949,0.207,1.891,0.417,2.836,0.635c1.006,0.22,1.99,0.492,2.953,0.801c0.963,0.32,1.812,0.739,2.553,1.255
					c0.744,0.521,1.342,1.176,1.797,1.961c0.455,0.788,0.686,1.767,0.686,2.933c0,1.48-0.309,2.71-0.92,3.687
					c-0.617,0.975-1.424,1.763-2.414,2.36c-0.992,0.599-2.109,1.016-3.352,1.252c-1.246,0.237-2.484,0.354-3.713,0.354
					c-1.352,0-2.645-0.142-3.873-0.424c-1.232-0.283-2.314-0.752-3.266-1.397c-0.945-0.644-1.699-1.492-2.264-2.552
					c-0.57-1.056-0.887-2.338-0.945-3.852h4.012C100.771,33.15,100.977,33.901,101.355,34.51z"/>
			</g>
		</g>
	</g>
	<g>
		<g>
			<path fill="#A0A09F" d="M-64.035,174.12c0-0.635-0.178-1.176-0.541-1.619c-0.359-0.44-0.817-0.84-1.364-1.204
				c-0.551-0.358-1.142-0.711-1.776-1.046c-0.637-0.332-1.227-0.724-1.775-1.162c-0.551-0.441-1.004-0.963-1.366-1.565
				c-0.36-0.599-0.544-1.341-0.544-2.222c0-0.939,0.191-1.74,0.572-2.412c0.383-0.669,0.901-1.216,1.556-1.642
				c0.654-0.421,1.43-0.731,2.321-0.923c0.89-0.198,1.835-0.292,2.832-0.292c1.134,0,2.152,0.081,3.053,0.239
				c0.902,0.159,1.602,0.361,2.116,0.605l-1.175,1.879c-0.392-0.192-0.973-0.378-1.749-0.556c-0.77-0.173-1.669-0.263-2.682-0.263
				c-1.295,0-2.347,0.263-3.157,0.794c-0.813,0.528-1.22,1.299-1.22,2.303c0,0.655,0.181,1.205,0.543,1.658
				c0.361,0.447,0.816,0.852,1.365,1.218c0.548,0.357,1.14,0.711,1.777,1.043c0.638,0.338,1.227,0.723,1.775,1.154
				c0.548,0.436,1.001,0.948,1.364,1.552c0.36,0.597,0.543,1.331,0.543,2.192c0,1.717-0.683,3.035-2.055,3.961
				c-1.374,0.923-3.339,1.389-5.907,1.389c-1.311,0-2.42-0.101-3.331-0.304c-0.91-0.201-1.599-0.428-2.067-0.677l1.202-1.934
				c0.452,0.229,1.062,0.454,1.833,0.674c0.775,0.224,1.689,0.332,2.747,0.332c0.604,0,1.213-0.043,1.819-0.142
				c0.606-0.101,1.154-0.274,1.642-0.521c0.491-0.249,0.887-0.574,1.19-0.978C-64.186,175.251-64.035,174.734-64.035,174.12z"/>
			<path fill="#A0A09F" d="M-52.964,165.643h2.198l-3.109,13.243h-2.2L-52.964,165.643z M-52.494,161.595
				c0-0.408,0.151-0.755,0.45-1.033c0.307-0.282,0.681-0.429,1.135-0.429c0.446,0,0.83,0.143,1.145,0.429
				c0.313,0.278,0.469,0.625,0.469,1.033c0,0.403-0.155,0.746-0.469,1.016c-0.314,0.271-0.694,0.413-1.145,0.413
				c-0.451,0-0.828-0.139-1.135-0.413C-52.34,162.339-52.494,161.999-52.494,161.595z"/>
			<path fill="#A0A09F" d="M-39.519,175.135c0-0.458-0.124-0.851-0.38-1.169c-0.255-0.322-0.578-0.608-0.97-0.867
				c-0.393-0.255-0.81-0.512-1.26-0.758c-0.452-0.245-0.874-0.521-1.264-0.831c-0.394-0.306-0.715-0.668-0.97-1.078
				c-0.256-0.417-0.382-0.928-0.382-1.547c0-0.49,0.13-0.952,0.398-1.385c0.266-0.432,0.626-0.809,1.081-1.14
				c0.461-0.323,1.008-0.578,1.646-0.763c0.636-0.182,1.325-0.278,2.067-0.278c1.04,0,1.841,0.063,2.412,0.189
				c0.565,0.119,1.072,0.297,1.524,0.528l-0.73,1.589c-0.786-0.405-1.85-0.609-3.206-0.609c-0.819,0-1.499,0.157-2.039,0.463
				c-0.533,0.309-0.805,0.782-0.805,1.417c0,0.369,0.125,0.694,0.38,0.966c0.256,0.275,0.577,0.533,0.969,0.781
				c0.392,0.247,0.812,0.499,1.262,0.758c0.453,0.259,0.874,0.545,1.264,0.873c0.394,0.328,0.715,0.711,0.967,1.155
				c0.256,0.437,0.384,0.957,0.384,1.557c0,1.382-0.517,2.424-1.545,3.141c-1.029,0.716-2.401,1.074-4.122,1.074
				c-0.879,0-1.689-0.078-2.425-0.24c-0.733-0.158-1.322-0.36-1.775-0.608l0.823-1.669c0.389,0.232,0.904,0.426,1.543,0.584
				c0.635,0.156,1.295,0.235,1.984,0.235c0.956,0,1.723-0.19,2.301-0.567C-39.807,176.555-39.519,175.954-39.519,175.135z"/>
			<path fill="#A0A09F" d="M-30.419,165.643h2.174l0.614-2.622l2.354-0.607l-0.765,3.23h3.846l-0.438,1.693h-3.814l-1.849,8.001
				c-0.043,0.208-0.079,0.407-0.106,0.583c-0.03,0.177-0.042,0.336-0.042,0.478c0,0.424,0.107,0.716,0.321,0.876
				c0.216,0.155,0.537,0.235,0.971,0.235c0.472,0,0.9-0.054,1.29-0.159c0.393-0.104,0.784-0.266,1.175-0.478v1.615
				c-0.41,0.21-0.938,0.387-1.582,0.519c-0.648,0.131-1.265,0.199-1.854,0.199c-1.781,0-2.673-0.733-2.673-2.197
				c0-0.296,0.051-0.672,0.147-1.112l1.998-8.553h-2.198L-30.419,165.643z"/>
			<path fill="#A0A09F" d="M-8.954,177.587c-0.684,0.531-1.494,0.931-2.422,1.206c-0.929,0.274-1.868,0.409-2.803,0.409
				c-1.568,0-2.749-0.405-3.54-1.219c-0.796-0.809-1.192-1.94-1.192-3.389c0-1.449,0.227-2.747,0.678-3.893
				c0.449-1.146,1.042-2.118,1.779-2.915c0.733-0.794,1.564-1.402,2.493-1.827c0.93-0.424,1.886-0.639,2.863-0.639
				c0.708,0,1.319,0.092,1.834,0.269c0.521,0.179,0.946,0.411,1.278,0.701c0.335,0.291,0.577,0.627,0.733,1.006
				c0.159,0.38,0.236,0.779,0.236,1.204c0,1.253-0.677,2.237-2.026,2.955c-1.348,0.714-3.315,1.072-5.897,1.072
				c-0.235,0-0.481-0.003-0.735-0.017c-0.254-0.007-0.519-0.021-0.794-0.037c-0.078,0.333-0.136,0.651-0.175,0.955
				c-0.041,0.295-0.058,0.563-0.058,0.793c0,0.972,0.245,1.759,0.734,2.369c0.486,0.605,1.249,0.913,2.289,0.913
				c0.859,0,1.645-0.127,2.359-0.383c0.716-0.257,1.267-0.524,1.66-0.807L-8.954,177.587z M-11.45,167.023
				c-1.078,0-2.012,0.328-2.806,0.993c-0.794,0.659-1.396,1.656-1.805,2.979c0.744,0,1.516-0.019,2.316-0.052
				c0.803-0.037,1.531-0.128,2.19-0.28c0.657-0.149,1.199-0.389,1.631-0.718c0.43-0.324,0.644-0.777,0.644-1.361
				c0-0.177-0.036-0.356-0.101-0.544c-0.071-0.183-0.186-0.351-0.342-0.502c-0.155-0.148-0.374-0.271-0.656-0.368
				C-10.66,167.068-11.018,167.023-11.45,167.023z"/>
			<path fill="#A0A09F" d="M5.11,178.884l1.76-7.496c0.156-0.613,0.277-1.161,0.354-1.64c0.078-0.479,0.118-0.891,0.118-1.243
				c0-0.478-0.1-0.84-0.295-1.101c-0.197-0.254-0.526-0.379-0.998-0.379c-0.487,0-0.966,0.114-1.438,0.343
				c-0.469,0.229-0.913,0.52-1.322,0.86c-0.407,0.344-0.789,0.712-1.131,1.102c-0.342,0.387-0.611,0.741-0.805,1.06l-1.937,8.501
				h-2.204l3.114-13.239h1.556l-0.179,2.276h0.119c0.312-0.284,0.65-0.578,1.013-0.888c0.36-0.31,0.763-0.585,1.203-0.836
				c0.438-0.246,0.917-0.452,1.438-0.62c0.52-0.168,1.088-0.258,1.717-0.258c0.88,0,1.476,0.254,1.774,0.744
				c0.304,0.493,0.457,1.187,0.457,2.064c0.292-0.335,0.636-0.669,1.027-1.003c0.39-0.335,0.817-0.638,1.278-0.901
				c0.459-0.268,0.944-0.482,1.452-0.65c0.512-0.164,1.017-0.255,1.525-0.255c0.9,0,1.589,0.194,2.07,0.573
				c0.479,0.379,0.72,1.08,0.72,2.103c0,0.744-0.149,1.728-0.44,2.942l-1.85,7.946h-2.199l1.848-7.972
				c0.118-0.514,0.21-0.97,0.278-1.377c0.067-0.406,0.104-0.759,0.104-1.061c0-0.479-0.108-0.841-0.323-1.086
				c-0.215-0.246-0.579-0.367-1.087-0.367c-0.41,0-0.843,0.116-1.306,0.356c-0.459,0.239-0.905,0.534-1.337,0.886
				c-0.432,0.356-0.818,0.737-1.157,1.143c-0.346,0.404-0.611,0.784-0.807,1.138l-1.911,8.345H5.112v-0.011H5.11z"/>
			<path fill="#A0A09F" d="M33.617,173.667c-0.158,0.652-0.267,1.315-0.321,1.987c-0.059,0.671-0.086,1.298-0.086,1.874
				c0,0.267,0,0.522,0,0.758c0,0.239,0.02,0.452,0.056,0.646h-1.617l-0.409-2.302h-0.121c-0.234,0.301-0.523,0.604-0.864,0.911
				c-0.343,0.312-0.719,0.593-1.131,0.839c-0.41,0.246-0.852,0.442-1.321,0.594c-0.471,0.153-0.969,0.227-1.496,0.227
				c-2.329,0-3.494-1.368-3.494-4.106c0-1.131,0.162-2.278,0.483-3.438c0.321-1.167,0.818-2.217,1.49-3.155
				c0.68-0.938,1.545-1.702,2.607-2.304c1.065-0.6,2.35-0.899,3.852-0.899c0.547,0,1.218,0.055,2.008,0.168
				c0.791,0.118,1.53,0.275,2.213,0.466L33.617,173.667z M26.983,177.507c0.468,0,0.916-0.101,1.348-0.303
				c0.432-0.198,0.84-0.457,1.22-0.756c0.383-0.299,0.719-0.621,1.012-0.967c0.293-0.347,0.526-0.67,0.706-0.965l1.64-7.151
				c-0.587-0.248-1.33-0.37-2.229-0.37c-0.9,0-1.694,0.238-2.379,0.715s-1.263,1.099-1.732,1.868
				c-0.47,0.767-0.82,1.637-1.056,2.605c-0.238,0.976-0.354,1.945-0.354,2.915c0,0.672,0.146,1.239,0.438,1.709
				C25.895,177.275,26.353,177.507,26.983,177.507z"/>
			<path fill="#A0A09F" d="M61.802,174.332c-0.158,0.686-0.273,1.328-0.352,1.932c-0.08,0.601-0.121,1.156-0.121,1.671
				c0,0.196,0.005,0.37,0.015,0.526c0.012,0.158,0.028,0.318,0.043,0.476h-1.468l-0.408-2.302h-0.119
				c-0.234,0.301-0.526,0.604-0.879,0.915c-0.358,0.307-0.743,0.589-1.175,0.836c-0.433,0.245-0.884,0.444-1.363,0.592
				c-0.479,0.153-0.974,0.227-1.481,0.227c-1.077,0-1.937-0.358-2.57-1.073c-0.638-0.717-0.956-1.849-0.956-3.402
				c0-1.041,0.166-2.115,0.504-3.215c0.331-1.105,0.82-2.107,1.468-3.007c0.644-0.9,1.45-1.642,2.42-2.226
				c0.971-0.581,2.09-0.873,3.362-0.873c0.354,0,0.658,0.009,0.912,0.027c0.256,0.021,0.492,0.043,0.719,0.078
				c0.227,0.037,0.438,0.087,0.632,0.149c0.195,0.062,0.399,0.125,0.618,0.199l1.289-5.51h2.202L61.802,174.332z M55.308,177.507
				c0.413,0,0.834-0.101,1.265-0.303c0.436-0.198,0.837-0.457,1.221-0.756c0.38-0.299,0.724-0.621,1.027-0.967
				c0.303-0.347,0.545-0.67,0.719-0.965l1.64-6.89c-0.33-0.194-0.706-0.33-1.129-0.41c-0.42-0.077-0.976-0.118-1.66-0.118
				c-0.778,0-1.487,0.212-2.112,0.649c-0.629,0.431-1.159,1.008-1.6,1.729c-0.44,0.724-0.777,1.556-1.013,2.49
				c-0.234,0.936-0.353,1.897-0.353,2.888c0,0.721,0.155,1.348,0.47,1.868C54.098,177.251,54.607,177.507,55.308,177.507z"/>
			<path fill="#A0A09F" d="M78.797,177.587c-0.682,0.531-1.492,0.931-2.422,1.206c-0.93,0.271-1.865,0.409-2.801,0.409
				c-1.568,0-2.746-0.405-3.537-1.219c-0.797-0.809-1.193-1.94-1.193-3.389c0-1.449,0.229-2.747,0.68-3.893
				c0.443-1.148,1.041-2.118,1.771-2.915c0.738-0.794,1.564-1.402,2.498-1.827c0.928-0.424,1.883-0.639,2.863-0.639
				c0.703,0,1.314,0.092,1.832,0.269c0.516,0.179,0.943,0.411,1.277,0.701c0.334,0.291,0.578,0.627,0.732,1.006
				c0.158,0.38,0.236,0.779,0.236,1.204c0,1.253-0.678,2.237-2.027,2.955c-1.35,0.714-3.318,1.072-5.9,1.072
				c-0.234,0-0.482-0.003-0.734-0.017c-0.258-0.007-0.52-0.021-0.795-0.037c-0.076,0.333-0.133,0.651-0.174,0.955
				c-0.039,0.295-0.059,0.563-0.059,0.793c0,0.972,0.244,1.759,0.734,2.369c0.488,0.605,1.25,0.913,2.289,0.913
				c0.857,0,1.648-0.127,2.359-0.383c0.717-0.257,1.27-0.524,1.664-0.807L78.797,177.587z M76.309,167.023
				c-1.08,0-2.018,0.328-2.809,0.993c-0.789,0.659-1.395,1.656-1.805,2.979c0.744,0,1.52-0.019,2.32-0.052
				c0.803-0.037,1.529-0.128,2.191-0.28c0.654-0.149,1.195-0.389,1.629-0.718c0.432-0.324,0.645-0.777,0.645-1.361
				c0-0.177-0.035-0.356-0.104-0.544c-0.068-0.183-0.178-0.351-0.34-0.502c-0.158-0.148-0.371-0.271-0.658-0.368
				C77.094,167.068,76.735,167.023,76.309,167.023z"/>
			<path fill="#A0A09F" d="M99.379,165.643h2.201l-3.111,13.243H96.27L99.379,165.643z M99.852,161.595
				c0-0.408,0.148-0.755,0.453-1.033c0.307-0.282,0.68-0.429,1.129-0.429c0.451,0,0.832,0.143,1.145,0.429
				c0.316,0.278,0.471,0.625,0.471,1.033c0,0.403-0.154,0.746-0.471,1.016c-0.312,0.274-0.689,0.413-1.145,0.413
				c-0.449,0-0.822-0.139-1.129-0.413C100,162.339,99.852,161.999,99.852,161.595z"/>
			<path fill="#A0A09F" d="M114.939,178.884l1.969-8.37c0.078-0.317,0.145-0.628,0.203-0.938c0.062-0.308,0.092-0.589,0.092-0.835
				c0-0.513-0.135-0.925-0.398-1.239c-0.266-0.322-0.76-0.479-1.479-0.479c-0.512,0-1.012,0.106-1.5,0.317
				c-0.49,0.21-0.951,0.483-1.383,0.809c-0.43,0.324-0.816,0.685-1.156,1.081c-0.346,0.4-0.633,0.793-0.867,1.18l-1.939,8.477
				h-2.197l3.107-13.243h1.527l-0.117,2.278h0.117c0.256-0.283,0.559-0.578,0.914-0.886c0.35-0.312,0.742-0.589,1.186-0.836
				c0.441-0.247,0.936-0.455,1.482-0.624c0.545-0.164,1.152-0.255,1.822-0.255c0.98,0,1.752,0.215,2.316,0.639
				c0.57,0.424,0.85,1.163,0.85,2.225c0,0.526-0.088,1.162-0.26,1.904l-2.09,8.795H114.939L114.939,178.884z"/>
			<path fill="#A0A09F" d="M129.119,173.404l0.264,2.514h0.062l1.262-2.568l4.961-7.708h2.527l-9.166,13.532h-0.938l-2.85-13.532
				h2.35L129.119,173.404z"/>
			<path fill="#A0A09F" d="M150.436,177.587c-0.686,0.531-1.494,0.931-2.42,1.206c-0.93,0.274-1.867,0.409-2.803,0.409
				c-1.564,0-2.748-0.405-3.541-1.219c-0.797-0.809-1.189-1.94-1.189-3.389c0-1.449,0.225-2.747,0.676-3.893
				c0.449-1.146,1.039-2.118,1.779-2.915c0.73-0.794,1.562-1.402,2.496-1.827c0.924-0.424,1.879-0.639,2.857-0.639
				c0.707,0,1.318,0.092,1.836,0.269c0.52,0.179,0.947,0.411,1.277,0.701c0.33,0.291,0.576,0.627,0.734,1.006
				c0.154,0.38,0.234,0.779,0.234,1.204c0,1.253-0.676,2.237-2.027,2.955c-1.348,0.714-3.314,1.072-5.896,1.072
				c-0.236,0-0.479-0.003-0.738-0.017c-0.25-0.007-0.518-0.021-0.791-0.037c-0.082,0.333-0.139,0.651-0.178,0.955
				c-0.043,0.295-0.057,0.563-0.057,0.793c0,0.972,0.246,1.759,0.738,2.369c0.482,0.605,1.25,0.913,2.285,0.913
				c0.861,0,1.645-0.127,2.361-0.383c0.713-0.257,1.268-0.524,1.656-0.807L150.436,177.587z M147.945,167.023
				c-1.082,0-2.012,0.328-2.805,0.993c-0.797,0.659-1.398,1.656-1.811,2.979c0.746,0,1.52-0.019,2.318-0.052
				c0.807-0.037,1.533-0.128,2.189-0.28c0.66-0.149,1.199-0.389,1.631-0.718c0.43-0.324,0.648-0.777,0.648-1.361
				c0-0.177-0.035-0.356-0.102-0.544c-0.076-0.183-0.188-0.351-0.344-0.502c-0.156-0.148-0.377-0.271-0.656-0.368
				C148.73,167.068,148.371,167.023,147.945,167.023z"/>
			<path fill="#A0A09F" d="M165.264,178.884l1.965-8.37c0.08-0.317,0.146-0.628,0.203-0.938c0.062-0.308,0.092-0.589,0.092-0.835
				c0-0.513-0.135-0.925-0.396-1.239c-0.268-0.322-0.758-0.479-1.48-0.479c-0.51,0-1.008,0.106-1.498,0.317
				c-0.49,0.21-0.951,0.483-1.381,0.809c-0.432,0.324-0.82,0.685-1.16,1.081c-0.342,0.4-0.625,0.793-0.863,1.18l-1.939,8.477h-2.199
				l3.111-13.243h1.525l-0.117,2.278h0.117c0.26-0.283,0.559-0.578,0.914-0.886c0.355-0.312,0.746-0.589,1.188-0.836
				c0.439-0.247,0.932-0.455,1.48-0.624c0.547-0.164,1.154-0.255,1.822-0.255c0.98,0,1.746,0.215,2.311,0.639
				c0.576,0.424,0.855,1.163,0.855,2.225c0,0.526-0.086,1.162-0.26,1.904l-2.088,8.795H165.264L165.264,178.884z"/>
			<path fill="#A0A09F" d="M175.891,165.643h2.172l0.613-2.622l2.352-0.607l-0.76,3.23h3.838l-0.436,1.693h-3.816l-1.852,8.001
				c-0.041,0.208-0.07,0.407-0.1,0.583c-0.031,0.177-0.047,0.336-0.047,0.478c0,0.424,0.105,0.716,0.32,0.876
				c0.219,0.155,0.541,0.235,0.967,0.235c0.473,0,0.902-0.054,1.297-0.159c0.393-0.104,0.781-0.266,1.172-0.478v1.615
				c-0.412,0.21-0.939,0.387-1.584,0.519c-0.645,0.131-1.262,0.199-1.852,0.199c-1.777,0-2.67-0.733-2.67-2.197
				c0-0.296,0.049-0.672,0.145-1.112l1.996-8.553h-2.197L175.891,165.643z"/>
			<path fill="#A0A09F" d="M198.059,173.667c-0.16,0.652-0.268,1.315-0.326,1.987c-0.057,0.671-0.086,1.298-0.086,1.874
				c0,0.267,0,0.522,0,0.758c0,0.239,0.02,0.452,0.057,0.646h-1.613l-0.412-2.302h-0.117c-0.236,0.301-0.523,0.604-0.869,0.911
				c-0.348,0.312-0.719,0.593-1.129,0.839c-0.416,0.246-0.854,0.442-1.322,0.594c-0.471,0.153-0.969,0.227-1.496,0.227
				c-2.324,0-3.492-1.368-3.492-4.106c0-1.131,0.164-2.278,0.484-3.438c0.324-1.167,0.818-2.217,1.492-3.155
				c0.676-0.938,1.547-1.702,2.604-2.304c1.072-0.6,2.352-0.899,3.857-0.899c0.545,0,1.215,0.055,2.002,0.168
				c0.793,0.118,1.531,0.275,2.213,0.466L198.059,173.667z M191.424,177.507c0.473,0,0.918-0.101,1.348-0.303
				c0.432-0.198,0.84-0.457,1.219-0.756c0.383-0.299,0.717-0.621,1.014-0.967c0.291-0.347,0.527-0.67,0.705-0.965l1.639-7.151
				c-0.586-0.248-1.324-0.37-2.229-0.37c-0.902,0-1.691,0.238-2.379,0.715c-0.684,0.477-1.258,1.099-1.73,1.868
				c-0.471,0.767-0.824,1.637-1.057,2.605c-0.238,0.976-0.355,1.945-0.355,2.915c0,0.672,0.145,1.239,0.441,1.709
				C190.332,177.277,190.791,177.507,191.424,177.507z"/>
			<path fill="#A0A09F" d="M213.793,167.389c-0.176-0.036-0.357-0.061-0.541-0.081c-0.188-0.019-0.355-0.025-0.516-0.025
				c-0.998,0-1.857,0.278-2.584,0.846c-0.723,0.565-1.287,1.253-1.705,2.063l-2.025,8.688h-2.207l3.121-13.241h1.525v2.277h0.117
				c0.232-0.334,0.49-0.645,0.758-0.939c0.281-0.287,0.576-0.553,0.914-0.779c0.334-0.227,0.691-0.412,1.086-0.54
				c0.393-0.135,0.822-0.201,1.291-0.201c0.436,0,0.883,0.062,1.352,0.186L213.793,167.389z"/>
			<path fill="#A0A09F" d="M220.404,165.643h2.201l-3.109,13.243h-2.209L220.404,165.643z M220.875,161.595
				c0-0.408,0.146-0.755,0.451-1.033c0.303-0.282,0.68-0.429,1.129-0.429c0.453,0,0.832,0.143,1.145,0.429
				c0.318,0.278,0.475,0.625,0.475,1.033c0,0.403-0.156,0.746-0.475,1.016c-0.312,0.274-0.691,0.413-1.145,0.413
				c-0.447,0-0.826-0.139-1.129-0.413C221.021,162.339,220.875,161.999,220.875,161.595z"/>
			<path fill="#A0A09F" d="M227.713,174.75c0-1.394,0.197-2.669,0.6-3.823c0.402-1.155,0.953-2.148,1.658-2.978
				c0.707-0.834,1.52-1.476,2.449-1.935c0.93-0.462,1.924-0.691,2.984-0.691c0.822,0,1.52,0.121,2.096,0.36
				c0.58,0.239,1.049,0.566,1.41,0.982c0.361,0.414,0.623,0.89,0.783,1.429c0.152,0.541,0.232,1.099,0.232,1.685
				c0,1.323-0.191,2.559-0.574,3.71c-0.381,1.147-0.912,2.145-1.584,2.992c-0.678,0.844-1.465,1.512-2.363,1.996
				c-0.902,0.488-1.879,0.73-2.936,0.73c-0.881,0-1.617-0.123-2.215-0.385c-0.6-0.255-1.084-0.595-1.469-1.017
				c-0.383-0.426-0.658-0.902-0.824-1.43C227.793,175.84,227.713,175.3,227.713,174.75z M230.057,174.275
				c0,1.047,0.219,1.844,0.65,2.4c0.43,0.555,1.115,0.833,2.055,0.833c0.643,0,1.252-0.209,1.83-0.623
				c0.578-0.411,1.092-0.975,1.527-1.678c0.439-0.709,0.793-1.518,1.062-2.425c0.262-0.912,0.393-1.856,0.393-2.847
				c0-0.899-0.178-1.611-0.543-2.129c-0.363-0.521-1.053-0.782-2.07-0.782c-0.643,0-1.256,0.197-1.85,0.597
				c-0.586,0.397-1.111,0.929-1.57,1.603c-0.461,0.671-0.816,1.439-1.082,2.314C230.193,172.41,230.057,173.324,230.057,174.275z"/>
		</g>
	</g>
</g>
</svg>
